<svg width="96" height="96" viewBox="0 0 96 96" fill="none" xmlns="http://www.w3.org/2000/svg">
<path d="M76.8 19H19.2C15.24 19 12.036 22.2625 12.036 26.25L12 69.75C12 73.7375 15.24 77 19.2 77H76.8C80.76 77 84 73.7375 84 69.75V26.25C84 22.2625 80.76 19 76.8 19ZM75.36 34.4062L49.908 50.4288C48.756 51.1538 47.244 51.1538 46.092 50.4288L20.64 34.4062C19.74 33.8263 19.2 32.8475 19.2 31.7963C19.2 29.3675 21.828 27.9175 23.88 29.1862L48 44.375L72.12 29.1862C74.172 27.9175 76.8 29.3675 76.8 31.7963C76.8 32.8475 76.26 33.8263 75.36 34.4062Z" fill="#0065FF"/>
</svg>
