<svg width="96" height="96" viewBox="0 0 96 96" fill="none" xmlns="http://www.w3.org/2000/svg">
<path d="M76 52V72C76 74.2 74.2 76 72 76H24C21.8 76 20 74.2 20 72V52C20 49.8 18.2 48 16 48C13.8 48 12 49.8 12 52V76C12 80.4 15.6 84 20 84H76C80.4 84 84 80.4 84 76V52C84 49.8 82.2 48 80 48C77.8 48 76 49.8 76 52ZM52 50.68L59.52 43.16C61.08 41.6 63.6 41.6 65.16 43.16C66.72 44.72 66.72 47.24 65.16 48.8L50.8 63.16C49.24 64.72 46.72 64.72 45.16 63.16L30.8 48.8C29.24 47.24 29.24 44.72 30.8 43.16C32.36 41.6 34.88 41.6 36.44 43.16L44 50.68V16C44 13.8 45.8 12 48 12C50.2 12 52 13.8 52 16V50.68Z" fill="#0065FF"/>
</svg>
