<svg width="192" height="192" viewBox="0 0 192 192" fill="none" xmlns="http://www.w3.org/2000/svg">
<rect width="192" height="192" fill="white"/>
<path d="M49.5831 152.201H29.5092L29.6359 137.383H49.5831C54.5646 137.383 58.7652 136.264 62.1847 134.027C65.6042 131.747 68.1794 128.433 69.9103 124.085C71.6834 119.737 72.5699 114.481 72.5699 108.317V103.821C72.5699 99.0928 72.0633 94.9345 71.0501 91.3461C70.0792 87.7577 68.6227 84.7392 66.6807 82.2907C64.7388 79.8421 62.3536 78.0057 59.5251 76.7814C56.6966 75.5149 53.4459 74.8817 49.7731 74.8817H29.1293V60.0004H49.7731C55.9367 60.0004 61.5726 61.0558 66.6807 63.1667C71.8311 65.2353 76.285 68.2115 80.0422 72.0954C83.7995 75.9793 86.6913 80.6231 88.7177 86.0268C90.7863 91.3883 91.8206 97.3619 91.8206 103.948V108.317C91.8206 114.861 90.7863 120.834 88.7177 126.238C86.6913 131.642 83.7995 136.285 80.0422 140.169C76.3272 144.011 71.8733 146.987 66.6807 149.098C61.5303 151.167 55.8311 152.201 49.5831 152.201ZM40.2744 60.0004V152.201H21.277V60.0004H40.2744Z" fill="#1C2027"/>
<path d="M98.0264 143.399C98.0264 140.697 98.9551 138.438 100.813 136.623C102.712 134.808 105.224 133.9 108.348 133.9C111.472 133.9 113.963 134.808 115.821 136.623C117.72 138.438 118.67 140.697 118.67 143.399C118.67 146.101 117.72 148.359 115.821 150.175C113.963 151.99 111.472 152.898 108.348 152.898C105.224 152.898 102.712 151.99 100.813 150.175C98.9551 148.359 98.0264 146.101 98.0264 143.399Z" fill="#1C2027"/>
<path d="M159.197 86.7886C152.858 102.333 113.648 131.405 113.935 130.701C113.935 130.701 105.948 83.2046 112.287 67.6602C118.626 52.1158 134.265 43.7965 147.219 49.0787C160.173 54.3609 165.535 71.2442 159.197 86.7886Z" fill="#0065FF"/>
<path d="M148.306 73.1719C148.306 78.7676 143.543 83.3039 137.668 83.3039C131.792 83.3039 127.029 78.7676 127.029 73.1719C127.029 67.5762 131.792 63.04 137.668 63.04C143.543 63.04 148.306 67.5762 148.306 73.1719Z" fill="white"/>
</svg>
