<svg width="986" height="226" viewBox="0 0 986 226" fill="none" xmlns="http://www.w3.org/2000/svg">
<path d="M56.125 223H16.5L16.75 193.75H56.125C65.9583 193.75 74.25 191.542 81 187.125C87.75 182.625 92.8333 176.083 96.25 167.5C99.75 158.917 101.5 148.542 101.5 136.375V127.5C101.5 118.167 100.5 109.958 98.5 102.875C96.5833 95.7917 93.7083 89.8333 89.875 85C86.0417 80.1667 81.3333 76.5417 75.75 74.125C70.1667 71.625 63.75 70.375 56.5 70.375H15.75V41H56.5C68.6667 41 79.7917 43.0833 89.875 47.25C100.042 51.3333 108.833 57.2083 116.25 64.875C123.667 72.5417 129.375 81.7083 133.375 92.375C137.458 102.958 139.5 114.75 139.5 127.75V136.375C139.5 149.292 137.458 161.083 133.375 171.75C129.375 182.417 123.667 191.583 116.25 199.25C108.917 206.833 100.125 212.708 89.875 216.875C79.7083 220.958 68.4583 223 56.125 223ZM37.75 41V223H0.25V41H37.75Z" fill="white"/>
<path d="M203.125 188L231.25 87.75H254.125L246.75 127.125L218.625 223H199.5L203.125 188ZM188.875 87.75L209 187.875L210.875 223H188.375L154.125 87.75H188.875ZM279.875 186.25L299.5 87.75H334.375L300.125 223H277.75L279.875 186.25ZM257.25 87.75L285.25 187.25L289.125 223H269.875L241.75 127.25L234.625 87.75H257.25Z" fill="white"/>
<path d="M414.75 225.5C404.25 225.5 394.833 223.833 386.5 220.5C378.167 217.083 371.083 212.375 365.25 206.375C359.5 200.375 355.083 193.417 352 185.5C348.917 177.5 347.375 169 347.375 160V155C347.375 144.75 348.833 135.375 351.75 126.875C354.667 118.375 358.833 111 364.25 104.75C369.75 98.5 376.417 93.7083 384.25 90.375C392.083 86.9583 400.917 85.25 410.75 85.25C420.333 85.25 428.833 86.8333 436.25 90C443.667 93.1667 449.875 97.6667 454.875 103.5C459.958 109.333 463.792 116.333 466.375 124.5C468.958 132.583 470.25 141.583 470.25 151.5V166.5H362.75V142.5H434.875V139.75C434.875 134.75 433.958 130.292 432.125 126.375C430.375 122.375 427.708 119.208 424.125 116.875C420.542 114.542 415.958 113.375 410.375 113.375C405.625 113.375 401.542 114.417 398.125 116.5C394.708 118.583 391.917 121.5 389.75 125.25C387.667 129 386.083 133.417 385 138.5C384 143.5 383.5 149 383.5 155V160C383.5 165.417 384.25 170.417 385.75 175C387.333 179.583 389.542 183.542 392.375 186.875C395.292 190.208 398.792 192.792 402.875 194.625C407.042 196.458 411.75 197.375 417 197.375C423.5 197.375 429.542 196.125 435.125 193.625C440.792 191.042 445.667 187.167 449.75 182L467.25 201C464.417 205.083 460.542 209 455.625 212.75C450.792 216.5 444.958 219.583 438.125 222C431.292 224.333 423.5 225.5 414.75 225.5Z" fill="white"/>
<path d="M528.75 31V223H492.625V31H528.75Z" fill="white"/>
<path d="M596.5 31V223H560.375V31H596.5Z" fill="white"/>
<path d="M688.5 225.5C678 225.5 668.583 223.833 660.25 220.5C651.917 217.083 644.833 212.375 639 206.375C633.25 200.375 628.833 193.417 625.75 185.5C622.667 177.5 621.125 169 621.125 160V155C621.125 144.75 622.583 135.375 625.5 126.875C628.417 118.375 632.583 111 638 104.75C643.5 98.5 650.167 93.7083 658 90.375C665.833 86.9583 674.667 85.25 684.5 85.25C694.083 85.25 702.583 86.8333 710 90C717.417 93.1667 723.625 97.6667 728.625 103.5C733.708 109.333 737.542 116.333 740.125 124.5C742.708 132.583 744 141.583 744 151.5V166.5H636.5V142.5H708.625V139.75C708.625 134.75 707.708 130.292 705.875 126.375C704.125 122.375 701.458 119.208 697.875 116.875C694.292 114.542 689.708 113.375 684.125 113.375C679.375 113.375 675.292 114.417 671.875 116.5C668.458 118.583 665.667 121.5 663.5 125.25C661.417 129 659.833 133.417 658.75 138.5C657.75 143.5 657.25 149 657.25 155V160C657.25 165.417 658 170.417 659.5 175C661.083 179.583 663.292 183.542 666.125 186.875C669.042 190.208 672.542 192.792 676.625 194.625C680.792 196.458 685.5 197.375 690.75 197.375C697.25 197.375 703.292 196.125 708.875 193.625C714.542 191.042 719.417 187.167 723.5 182L741 201C738.167 205.083 734.292 209 729.375 212.75C724.542 216.5 718.708 219.583 711.875 222C705.042 224.333 697.25 225.5 688.5 225.5Z" fill="white"/>
<path d="M800.5 117.25V223H764.5V87.75H798.375L800.5 117.25ZM841.25 86.875L840.625 120.25C838.875 120 836.75 119.792 834.25 119.625C831.833 119.375 829.625 119.25 827.625 119.25C822.542 119.25 818.125 119.917 814.375 121.25C810.708 122.5 807.625 124.375 805.125 126.875C802.708 129.375 800.875 132.417 799.625 136C798.458 139.583 797.792 143.667 797.625 148.25L790.375 146C790.375 137.25 791.25 129.208 793 121.875C794.75 114.458 797.292 108 800.625 102.5C804.042 97 808.208 92.75 813.125 89.75C818.042 86.75 823.667 85.25 830 85.25C832 85.25 834.042 85.4167 836.125 85.75C838.208 86 839.917 86.375 841.25 86.875Z" fill="white"/>
<path d="M840.25 205.625C840.25 200.292 842.083 195.833 845.75 192.25C849.5 188.667 854.458 186.875 860.625 186.875C866.792 186.875 871.708 188.667 875.375 192.25C879.125 195.833 881 200.292 881 205.625C881 210.958 879.125 215.417 875.375 219C871.708 222.583 866.792 224.375 860.625 224.375C854.458 224.375 849.5 222.583 845.75 219C842.083 215.417 840.25 210.958 840.25 205.625Z" fill="white"/>
<path d="M962.497 93.8789C949.985 124.563 872.587 181.949 873.154 180.56C873.154 180.56 857.388 86.8041 869.9 56.1201C882.412 25.436 913.284 9.01424 938.854 19.441C964.424 29.8678 975.01 63.1948 962.497 93.8789Z" fill="#0065FF"/>
<path d="M941 67C941 78.0457 931.598 87 920 87C908.402 87 899 78.0457 899 67C899 55.9543 908.402 47 920 47C931.598 47 941 55.9543 941 67Z" fill="#1C2027"/>
</svg>
