<svg width="984" height="228" viewBox="0 0 984 228" fill="none" xmlns="http://www.w3.org/2000/svg">
<path d="M56.1732 224.972H16.514L16.7642 195.388H56.1732C66.015 195.388 74.3138 193.155 81.0696 188.688C87.8254 184.137 92.9131 177.521 96.3327 168.839C99.8358 160.158 101.587 149.665 101.587 137.36V128.384C101.587 118.944 100.586 110.643 98.5847 103.479C96.6664 96.3145 93.7889 90.2883 89.9523 85.4C86.1156 80.5116 81.4032 76.8453 75.8151 74.4011C70.2269 71.8726 63.8047 70.6084 56.5485 70.6084H15.7634V40.8989H56.5485C68.7256 40.8989 79.8602 43.0059 89.9523 47.22C100.128 51.3499 108.927 57.2918 116.35 65.0458C123.773 72.7997 129.486 82.0708 133.49 92.8589C137.577 103.563 139.62 115.489 139.62 128.637V137.36C139.62 150.424 137.577 162.35 133.49 173.138C129.486 183.926 123.773 193.197 116.35 200.951C109.01 208.621 100.211 214.563 89.9523 218.777C79.7768 222.907 68.5171 224.972 56.1732 224.972ZM37.7823 40.8989V224.972H0.25V40.8989H37.7823Z" fill="#1C2027"/>
<path d="M203.3 189.573L231.449 88.1813H254.344L246.962 128.005L218.813 224.972H199.672L203.3 189.573ZM189.038 88.1813L209.18 189.447L211.057 224.972H188.537L154.258 88.1813H189.038ZM280.116 187.803L299.758 88.1813H334.663L300.383 224.972H277.989L280.116 187.803ZM257.472 88.1813L285.496 188.814L289.374 224.972H270.107L241.958 128.131L234.827 88.1813H257.472Z" fill="#1C2027"/>
<path d="M415.107 227.5C404.598 227.5 395.173 225.814 386.833 222.443C378.492 218.987 371.403 214.226 365.565 208.157C359.81 202.089 355.389 195.051 352.303 187.044C349.217 178.953 347.674 170.357 347.674 161.254V156.197C347.674 145.83 349.134 136.349 352.053 127.752C354.972 119.155 359.142 111.696 364.564 105.375C370.069 99.0537 376.741 94.2075 384.581 90.8362C392.421 87.3806 401.262 85.6528 411.104 85.6528C420.695 85.6528 429.203 87.2542 436.626 90.4569C444.049 93.6596 450.263 98.2109 455.267 104.111C460.355 110.01 464.191 117.09 466.777 125.35C469.362 133.525 470.655 142.628 470.655 152.657V167.828H363.062V143.555H435.25V140.773C435.25 135.717 434.332 131.207 432.497 127.246C430.746 123.201 428.077 119.998 424.49 117.638C420.904 115.278 416.317 114.098 410.729 114.098C405.974 114.098 401.888 115.152 398.468 117.259C395.048 119.366 392.254 122.316 390.086 126.108C388.001 129.901 386.416 134.368 385.332 139.509C384.331 144.566 383.83 150.129 383.83 156.197V161.254C383.83 166.732 384.581 171.789 386.082 176.425C387.667 181.06 389.877 185.064 392.713 188.435C395.632 191.806 399.135 194.419 403.222 196.273C407.392 198.128 412.105 199.055 417.359 199.055C423.865 199.055 429.912 197.79 435.5 195.262C441.171 192.649 446.051 188.73 450.137 183.505L467.653 202.721C464.817 206.851 460.938 210.812 456.018 214.605C451.18 218.397 445.342 221.516 438.502 223.96C431.663 226.32 423.865 227.5 415.107 227.5Z" fill="#1C2027"/>
<path d="M529.206 30.785V224.972H493.049V30.785H529.206Z" fill="#1C2027"/>
<path d="M597.014 30.785V224.972H560.858V30.785H597.014Z" fill="#1C2027"/>
<path d="M689.093 227.5C678.584 227.5 669.159 225.814 660.819 222.443C652.478 218.987 645.389 214.226 639.551 208.157C633.796 202.089 629.375 195.051 626.289 187.044C623.203 178.953 621.66 170.357 621.66 161.254V156.197C621.66 145.83 623.12 136.349 626.039 127.752C628.958 119.155 633.128 111.696 638.55 105.375C644.055 99.0537 650.727 94.2075 658.567 90.8362C666.407 87.3806 675.248 85.6528 685.09 85.6528C694.681 85.6528 703.189 87.2542 710.612 90.4569C718.035 93.6596 724.249 98.2109 729.253 104.111C734.341 110.01 738.177 117.09 740.763 125.35C743.348 133.525 744.641 142.628 744.641 152.657V167.828H637.048V143.555H709.236V140.773C709.236 135.717 708.318 131.207 706.483 127.246C704.732 123.201 702.063 119.998 698.476 117.638C694.89 115.278 690.303 114.098 684.714 114.098C679.96 114.098 675.874 115.152 672.454 117.259C669.034 119.366 666.24 122.316 664.072 126.108C661.987 129.901 660.402 134.368 659.318 139.509C658.317 144.566 657.816 150.129 657.816 156.197V161.254C657.816 166.732 658.567 171.789 660.068 176.425C661.653 181.06 663.863 185.064 666.699 188.435C669.618 191.806 673.121 194.419 677.208 196.273C681.378 198.128 686.091 199.055 691.345 199.055C697.851 199.055 703.898 197.79 709.486 195.262C715.157 192.649 720.037 188.73 724.123 183.505L741.639 202.721C738.803 206.851 734.924 210.812 730.003 214.605C725.166 218.397 719.328 221.516 712.488 223.96C705.649 226.32 697.851 227.5 689.093 227.5Z" fill="#1C2027"/>
<path d="M801.19 118.017V224.972H765.159V88.1813H799.063L801.19 118.017ZM841.975 87.2963L841.349 121.051C839.598 120.799 837.471 120.588 834.969 120.419C832.55 120.166 830.34 120.04 828.338 120.04C823.25 120.04 818.83 120.714 815.077 122.063C811.407 123.327 808.321 125.223 805.819 127.752C803.4 130.28 801.565 133.357 800.314 136.981C799.146 140.605 798.479 144.735 798.312 149.37L791.056 147.095C791.056 138.245 791.932 130.112 793.683 122.695C795.435 115.194 797.979 108.662 801.315 103.099C804.735 97.5366 808.905 93.2382 813.826 90.204C818.747 87.1699 824.376 85.6528 830.715 85.6528C832.717 85.6528 834.76 85.8214 836.846 86.1585C838.931 86.4113 840.64 86.7906 841.975 87.2963Z" fill="#1C2027"/>
<path d="M840.974 207.399C840.974 202.005 842.809 197.495 846.479 193.871C850.232 190.247 855.195 188.435 861.367 188.435C867.539 188.435 872.46 190.247 876.129 193.871C879.883 197.495 881.759 202.005 881.759 207.399C881.759 212.793 879.883 217.302 876.129 220.926C872.46 224.55 867.539 226.362 861.367 226.362C855.195 226.362 850.232 224.55 846.479 220.926C842.809 217.302 840.974 212.793 840.974 207.399Z" fill="#1C2027"/>
<path d="M961.325 94.3799C948.802 125.413 871.338 183.453 871.904 182.049C871.904 182.049 856.125 87.2246 868.648 56.1911C881.171 25.1576 912.069 8.54885 937.661 19.0944C963.253 29.6399 973.848 63.3464 961.325 94.3799Z" fill="#0065FF"/>
<path d="M939.809 67.195C939.809 78.3665 930.399 87.4227 918.791 87.4227C907.183 87.4227 897.773 78.3665 897.773 67.195C897.773 56.0235 907.183 46.9672 918.791 46.9672C930.399 46.9672 939.809 56.0235 939.809 67.195Z" fill="white"/>
</svg>
